<svg width="24" height="24" viewBox="0 0 24 24" fill="none" xmlns="http://www.w3.org/2000/svg">
<path d="M10.119 2.00006L9.66515 4.50013C8.61622 4.83009 7.66783 5.3775 6.86014 6.08491L4.48661 5.16975L2.5 8.42117L4.40476 10.1102C4.25535 10.7157 4.17412 11.3484 4.17412 12C4.17412 12.6517 4.25535 13.2845 4.40476 13.8899L2.5 15.5789L4.48661 18.8303L6.86014 17.9152C7.66799 18.6226 8.61622 19.17 9.66515 19.4999L10.119 22H13.9284L14.3823 19.4999C15.4312 19.17 16.3795 18.6226 17.1873 17.9152L19.5608 18.8303L21.5474 15.5789L19.6501 13.8825C19.7981 13.2797 19.8733 12.6486 19.8733 12C19.8733 11.3514 19.7981 10.7204 19.6501 10.1175L21.5474 8.42111L19.5608 5.16969L17.1873 6.08485C16.3795 5.37732 15.4312 4.83003 14.3823 4.50006L13.9284 2L10.119 2.00006ZM12.0238 7.7143C14.3908 7.7143 16.3095 9.63308 16.3095 12.0001C16.3095 14.3671 14.3908 16.2858 12.0238 16.2858C9.65681 16.2858 7.73803 14.367 7.73803 12.0001C7.73803 9.63318 9.65681 7.7143 12.0238 7.7143Z" fill="#FAFAFA"/>
</svg>
