<svg width="24" height="24" viewBox="0 0 24 24" fill="none" xmlns="http://www.w3.org/2000/svg">
<path d="M16.1616 18.2063C16.0791 18.5159 16.034 18.8401 16.034 19.1762C16.034 19.5106 16.0791 19.8365 16.1616 20.1461L12.0981 20.1453C12.5183 19.5671 12.5183 18.7828 12.0981 18.2062L16.1616 18.2063ZM9.22727 16.3341C8.84357 15.9552 8.22029 15.9552 7.83485 16.3341C7.45028 16.7121 7.45028 17.3262 7.83485 17.706L8.34268 18.2063L5.46239 18.2072C4.774 18.2072 4.1481 17.9284 3.6941 17.481C3.24011 17.0337 2.95884 16.417 2.95884 15.7396C2.95884 15.0614 3.24011 14.4464 3.6941 13.9982C4.14812 13.5509 4.774 13.2721 5.46239 13.2721H7.15257C6.7324 12.6939 6.7324 11.9096 7.15257 11.3314H5.46239C4.23144 11.3314 3.11156 11.8275 2.30153 12.6263C1.49161 13.4243 0.988985 14.526 0.988985 15.7397C0.988985 16.9525 1.49249 18.055 2.30153 18.8531C3.11145 19.6511 4.23123 20.1463 5.46239 20.1463H8.34268L7.83485 20.6466C7.45028 21.0256 7.45028 21.6388 7.83485 22.0186C8.21942 22.3975 8.84357 22.3975 9.22727 22.0186L11.4157 19.8624C11.7994 19.4843 11.7994 18.8702 11.4157 18.4905L9.22727 16.3341ZM10.9088 13.2721H13.7891C15.02 13.2721 16.138 12.7761 16.9499 11.9789C17.7598 11.1809 18.2625 10.0793 18.2625 8.86555C18.2625 7.65187 17.7598 6.55026 16.9499 5.75052C16.1391 4.95254 15.0202 4.45731 13.7891 4.45731H12.0989C12.519 5.0355 12.519 5.81981 12.0989 6.398H13.7891C14.4774 6.398 15.1033 6.67682 15.5565 7.12415C16.0105 7.57148 16.2935 8.18729 16.2935 8.86555C16.2935 9.54209 16.0105 10.1588 15.5565 10.6069C15.1033 11.0543 14.4774 11.3314 13.7891 11.3314H10.9088L11.4166 10.8319C11.8003 10.453 11.8003 9.83802 11.4166 9.45998C11.032 9.08107 10.4079 9.08107 10.0242 9.45998L7.83576 11.6152C7.45119 11.9941 7.45119 12.6091 7.83576 12.9871L10.0242 15.1433C10.4079 15.5222 11.0312 15.5222 11.4166 15.1433C11.8003 14.7644 11.8003 14.1495 11.4166 13.7714L10.9088 13.2721ZM1.97269 6.398H8.34274L7.83491 6.89835C7.45034 7.2764 7.45034 7.8905 7.83491 8.27026C8.21947 8.6483 8.84363 8.6483 9.22733 8.27026L11.4157 6.11408C11.7994 5.73604 11.7994 5.12194 11.4157 4.74217L9.22733 2.58691C8.84363 2.20801 8.22035 2.20801 7.83491 2.58691C7.45034 2.96496 7.45034 3.57906 7.83491 3.95882L8.34274 4.45832L1.97269 4.45746C1.42926 4.45746 0.988281 4.89194 0.988281 5.42822C0.989149 5.96364 1.43013 6.398 1.97269 6.398ZM22.9883 19.1761C22.9883 20.8705 21.5863 22.2536 19.8667 22.2536C18.1461 22.2536 16.7432 20.8714 16.7432 19.1761C16.7432 17.4818 18.1452 16.0987 19.8667 16.0987C21.5864 16.0987 22.9883 17.4817 22.9883 19.1761ZM21.5672 18.0865C21.4301 17.9513 21.2044 17.9513 21.0655 18.0865L19.6071 19.5242L18.6669 18.5962C18.528 18.4594 18.3023 18.4594 18.1652 18.5962C18.0263 18.7331 18.0263 18.9538 18.1652 19.0906L19.3562 20.2658C19.4951 20.4009 19.719 20.4009 19.8579 20.2658L21.5672 18.5808C21.7061 18.444 21.7061 18.2233 21.5672 18.0865Z" fill="#FAFAFA"/>
</svg>
