<svg width="24" height="24" viewBox="0 0 24 24" fill="none" xmlns="http://www.w3.org/2000/svg">
<path fill-rule="evenodd" clip-rule="evenodd" d="M20.1819 16.3636H13.0908C12.2381 16.3636 11.5455 15.6708 11.5455 14.8181V9.72717C11.5455 8.87459 12.2381 8.1818 13.0908 8.1818H20.1819V6.8181C20.1819 5.81454 19.3674 5 18.3636 5H3.8181C2.81454 5 2 5.81454 2 6.8181V17.7271C2 18.7306 2.81454 19.5452 3.8181 19.5452H18.3636C19.3674 19.5452 20.1819 18.7306 20.1819 17.7271V16.3636ZM22 9.72709C22 9.12531 21.511 8.63631 20.9091 8.63631H13.0908C12.489 8.63631 11.9999 9.12531 11.9999 9.72709V14.818C11.9999 15.4199 12.489 15.9089 13.0908 15.9089H20.9091C21.511 15.9089 22 15.4199 22 14.818V9.72709ZM15.1818 11.3636C14.6801 11.3636 14.2729 11.7708 14.2729 12.2725C14.2729 12.7745 14.6801 13.1817 15.1818 13.1817C15.6838 13.1817 16.091 12.7745 16.091 12.2725C16.091 11.7708 15.6838 11.3636 15.1818 11.3636ZM17.9093 11.3636C17.4073 11.3636 17.0001 11.7708 17.0001 12.2725C17.0001 12.7745 17.4073 13.1817 17.9093 13.1817C18.411 13.1817 18.8182 12.7745 18.8182 12.2725C18.8182 11.7708 18.411 11.3636 17.9093 11.3636Z" fill="#FAFAFA"/>
</svg>
