<svg width="24" height="24" viewBox="0 0 24 24" fill="none" xmlns="http://www.w3.org/2000/svg">
<path d="M16.2568 18.8085H7.74623C7.51102 18.8085 7.3207 18.6182 7.3207 18.383C7.3207 18.1478 7.51102 17.9574 7.74623 17.9574H16.2568C16.4921 17.9574 16.6824 18.1478 16.6824 18.383C16.6824 18.6182 16.4921 18.8085 16.2568 18.8085Z" fill="#FAFAFA"/>
<path fill-rule="evenodd" clip-rule="evenodd" d="M22.0015 6.68087V7.95747C22.0065 9.17172 21.0826 10.1873 19.8742 10.2979V13.7021H20.7252C21.43 13.7021 22.0018 14.2739 22.0018 14.9787V15.4042C22.001 16.0268 21.5514 16.5578 20.938 16.6617V19.8723C20.938 20.4367 20.7136 20.9777 20.3147 21.3767C19.9157 21.7756 19.3747 22 18.8103 22H5.19335C4.62903 22 4.08796 21.7756 3.68903 21.3767C3.29009 20.9777 3.0657 20.4367 3.0657 19.8723V16.6617C2.45233 16.5578 2.0027 16.0267 2.00187 15.4042V14.9787C2.00187 14.2739 2.57368 13.7021 3.27846 13.7021H4.12952V10.2979C2.92109 10.1872 1.99688 9.17171 2.00187 7.95745V6.68086C1.99938 6.64845 1.99938 6.6152 2.00187 6.58279H2.01683C2.02348 6.55121 2.03345 6.52046 2.04675 6.49137L3.94001 2.70645C4.15609 2.27427 4.59742 2.00083 5.08029 2H18.9232C19.406 2.00083 19.8473 2.27427 20.0634 2.70645L21.9716 6.50219C21.9849 6.53127 21.9949 6.56203 22.0015 6.59361C22.004 6.6227 22.004 6.65179 22.0015 6.68087ZM19.6611 9.44682C20.4839 9.44682 21.1504 8.78026 21.1504 7.95747V7.1064H18.1717V7.95747C18.1717 8.78026 18.8383 9.44682 19.6611 9.44682ZM7.10793 10.0403V13.7021H16.8951V10.0403C15.8563 10.5697 14.5855 10.253 13.9164 9.29808C13.4784 9.92141 12.7637 10.2929 12.0015 10.2929C11.2394 10.2929 10.5246 9.92141 10.0866 9.29808C9.4175 10.253 8.14683 10.5697 7.10793 10.0403ZM9.66112 7.95747V7.1064H6.6824V7.95747C6.6824 8.78026 7.34896 9.44682 8.17176 9.44682C8.99456 9.44682 9.66112 8.78026 9.66112 7.95747ZM13.4909 7.95747V7.1064H10.5122V7.95747C10.5122 8.78026 11.1787 9.44682 12.0015 9.44682C12.8243 9.44682 13.4909 8.78026 13.4909 7.95747ZM17.3207 7.95747V7.1064H14.342V7.95747C14.342 8.78026 15.0085 9.44682 15.8313 9.44682C16.6541 9.44682 17.3207 8.78026 17.3207 7.95747ZM5.08008 2.85106C4.91884 2.85106 4.77173 2.94248 4.69943 3.08709L3.11566 6.25534H20.8869L19.3036 3.08709C19.2313 2.94248 19.0842 2.85106 18.923 2.85106H5.08008ZM2.85263 7.1064V7.95747C2.85263 8.78026 3.51918 9.44682 4.34198 9.44682C5.16478 9.44682 5.83134 8.78026 5.83134 7.95747V7.1064H2.85263ZM6.25687 9.29799C5.94852 9.73847 5.49723 10.0593 4.98028 10.2064V13.7021H6.25687V9.29799ZM18.81 21.1489C19.5148 21.1489 20.0866 20.5771 20.0866 19.8723V16.6808H3.91645V19.8723C3.91645 20.5771 4.48826 21.1489 5.19304 21.1489H18.81ZM21.1504 15.4043V14.9787C21.1504 14.8657 21.1056 14.7576 21.0258 14.6779C20.946 14.5981 20.8379 14.5532 20.7249 14.5532H3.27815C3.04294 14.5532 2.85262 14.7435 2.85262 14.9787V15.4043C2.85262 15.6395 3.04294 15.8298 3.27815 15.8298H20.7249C20.8379 15.8298 20.946 15.7849 21.0258 15.7051C21.1056 15.6253 21.1504 15.5173 21.1504 15.4043ZM17.7462 9.29806V13.7021L19.0228 13.7022V10.2065C18.5058 10.0594 18.0546 9.73856 17.7462 9.29806Z" fill="#FAFAFA"/>
</svg>
