<svg width="24" height="24" viewBox="0 0 24 24" fill="none" xmlns="http://www.w3.org/2000/svg">
<path d="M19.7531 18.4856L15.8244 14.5569C17.7997 11.989 17.6022 8.27984 15.2318 5.93142C13.9369 4.63647 12.2689 4 10.5789 4C8.88893 4 7.22085 4.63651 5.92593 5.93142C3.35802 8.49932 3.35802 12.6694 5.92593 15.2373C7.22087 16.5323 8.88889 17.1687 10.5789 17.1687C11.9836 17.1687 13.3882 16.7298 14.5515 15.8299L18.5021 19.7367C18.6777 19.9123 18.8972 20 19.1386 20C19.3581 20 19.5995 19.9122 19.7751 19.7367C20.1042 19.4074 20.1042 18.8368 19.7531 18.4857L19.7531 18.4856ZM10.6008 15.391C9.30585 15.391 8.12068 14.8861 7.19887 13.9863C5.3333 12.1207 5.3333 9.06995 7.19887 7.18243C8.09871 6.28258 9.30587 5.77774 10.6008 5.77774C11.8957 5.77774 13.0809 6.28258 14.0027 7.18243C14.9245 8.08227 15.4074 9.28942 15.4074 10.5844C15.4074 11.8793 14.9026 13.0645 14.0027 13.9863C13.1028 14.9081 11.8738 15.391 10.6008 15.391Z" fill="#FAFAFA"/>
</svg>
