<svg width="24" height="24" viewBox="0 0 24 24" fill="none" xmlns="http://www.w3.org/2000/svg">
<path d="M15.6906 6.7619H17.5365C17.7907 6.7619 17.9979 6.548 17.9979 6.28571V2.47619C17.9979 2.21391 17.7907 2 17.5365 2H14.7677C11.9692 2 9.69168 4.3502 9.69168 7.2381V9.65714H6.46146C6.20729 9.65714 6 9.87105 6 10.1333V13.9048C6 14.167 6.20729 14.381 6.46146 14.381H9.37077V21.5238C9.37077 21.7861 9.57806 22 9.83223 22H13.6852C13.9394 22 14.1467 21.7861 14.1467 21.5238V14.381H16.574C16.784 14.381 16.9687 14.2359 17.0219 14.0238L17.9845 10.2143C18.0214 10.0711 17.9917 9.91946 17.9034 9.80226C17.8159 9.686 17.6816 9.61625 17.5392 9.61625H14.309V8.18768C14.309 7.39992 14.93 6.75911 15.6934 6.75911L15.6906 6.7619ZM16.9389 10.5714L16.217 13.4286H13.6835C13.4294 13.4286 13.2221 13.6425 13.2221 13.9048V21.0476H10.292V13.9048C10.292 13.6425 10.0847 13.4286 9.83056 13.4286H6.92125V10.6095H10.1515C10.4056 10.6095 10.6129 10.3956 10.6129 10.1333V7.2381C10.6129 4.87579 12.475 2.95238 14.7661 2.95238H17.0734V5.80952H15.689C14.4173 5.80952 13.3817 6.87815 13.3817 8.19048V10.0952C13.3817 10.3575 13.589 10.5714 13.8431 10.5714H16.9389Z" fill="#FAFAFA"/>
</svg>
