<svg width="24" height="24" viewBox="0 0 24 24" fill="none" xmlns="http://www.w3.org/2000/svg">
<path d="M16.1137 7.90893V12.6818C16.1137 13.1818 15.7046 13.5909 15.2046 13.5909C14.7047 13.5909 14.2956 13.1818 14.2956 12.6818V10.1139L8.5458 15.8412C8.364 16.023 8.13651 16.1141 7.90928 16.1141C7.68199 16.1141 7.45455 16.023 7.27269 15.8412C6.9091 15.4775 6.9091 14.9095 7.27269 14.5458L13.0002 8.81819H10.4319C9.93184 8.81819 9.52274 8.40909 9.52274 7.90906C9.52274 7.4091 9.93184 7 10.4319 7H15.2045C15.4545 7 15.682 7.09113 15.8411 7.27299C16.0229 7.43207 16.1137 7.65891 16.1137 7.90893Z" fill="#FAFAFA"/>
</svg>
