<svg width="24" height="24" viewBox="0 0 24 24" fill="none" xmlns="http://www.w3.org/2000/svg">
<path fill-rule="evenodd" clip-rule="evenodd" d="M17.5839 4.26706C17.6521 4.39569 17.7788 4.48482 17.925 4.50707L21.4078 5.03717C21.6625 5.07594 21.8363 5.31034 21.7952 5.55958L21.2454 8.89257C21.2213 9.03842 21.271 9.18664 21.3787 9.2901L23.8607 11.6755C24.0464 11.854 24.0464 12.1469 23.8608 12.3253L21.379 14.7112C21.2714 14.8146 21.2217 14.9627 21.2457 15.1085L21.7944 18.4405C21.8355 18.6897 21.6616 18.9241 21.407 18.9628L17.9229 19.4929C17.7767 19.5152 17.65 19.6043 17.5818 19.733L15.9801 22.7545C15.8631 22.9752 15.5869 23.0631 15.3598 22.9519L12.2067 21.4076C12.0759 21.3435 11.9219 21.3435 11.791 21.4076L8.64085 22.951C8.41373 23.0623 8.13748 22.9744 8.02049 22.7536L6.41984 19.733C6.35165 19.6043 6.22495 19.5151 6.07868 19.4929L2.59288 18.9627C2.33817 18.924 2.16432 18.6896 2.20541 18.4403L2.75467 15.1085C2.77871 14.9627 2.72901 14.8145 2.62136 14.711L0.139252 12.3256C-0.0463996 12.1472 -0.04642 11.8542 0.139207 11.6758L2.62103 9.28996C2.72863 9.18652 2.77831 9.03838 2.7543 8.89259L2.20554 5.56052C2.16451 5.31134 2.33828 5.07704 2.59289 5.03824L6.07687 4.50733C6.22306 4.48506 6.34968 4.39593 6.41786 4.26731L8.01895 1.24695C8.13594 1.02624 8.41212 0.938355 8.6392 1.04957L11.7911 2.59322C11.9219 2.65729 12.0759 2.6573 12.2068 2.59323L15.3618 1.04814C15.5889 0.936939 15.865 1.02482 15.982 1.24551L17.5839 4.26706ZM6.69971 13.9124L9.84706 17.0513C9.91315 17.1172 10.0216 17.1172 10.0877 17.0513L17.3013 9.85695C17.7447 9.41478 17.7447 8.7062 17.3013 8.26402C16.8465 7.81043 16.1003 7.81043 15.6455 8.26402L9.96737 13.927L8.35552 12.3195C7.90072 11.8659 7.15452 11.8659 6.69971 12.3195C6.25635 12.7616 6.25635 13.4702 6.69971 13.9124Z" fill="#FF3EB5"/>
</svg>
