<svg width="24" height="24" viewBox="0 0 24 24" fill="none" xmlns="http://www.w3.org/2000/svg">
<path d="M5.88508 17.4839H18.1149C18.8803 17.4832 19.6141 17.1887 20.1551 16.6649C20.696 16.1413 20.9999 15.4311 21 14.6906C21.0001 13.9502 20.6963 13.24 20.1555 12.7162L18.335 10.9549V8.12906C18.335 6.50355 17.6676 4.94465 16.4795 3.79519C15.2915 2.64567 13.6802 2 12 2C10.3198 2 8.70859 2.6457 7.5205 3.79519C6.33236 4.9446 5.665 6.50352 5.665 8.12906V10.9549L3.84452 12.7162C3.30369 13.24 2.99992 13.9502 3 14.6906C3.00011 15.4311 3.30399 16.1413 3.84494 16.6649C4.38589 17.1887 5.11969 17.4832 5.88508 17.4839ZM5.2582 14.0839L7.66551 11.7548V8.129C7.66551 6.63078 8.49167 5.24648 9.83274 4.49728C11.1738 3.74828 12.826 3.74828 14.1672 4.49728C15.5083 5.2464 16.3344 6.63081 16.3344 8.129V11.7548L18.7417 14.0839C18.9079 14.2448 19.0013 14.463 19.0011 14.6904C19.0011 14.9178 18.9078 15.136 18.7416 15.2969C18.5755 15.4577 18.35 15.5483 18.1148 15.5484H5.885C5.64981 15.5483 5.42438 15.4578 5.2582 15.2969C5.09202 15.136 4.99869 14.9178 4.99869 14.6904C4.99858 14.4629 5.09203 14.2448 5.2582 14.0839Z" fill="#FAFAFA"/>
<path d="M10.6663 20.0645C10.3089 20.0645 9.97875 20.249 9.80009 20.5484C9.62134 20.8478 9.62134 21.2167 9.80009 21.5161C9.97874 21.8155 10.3089 22 10.6663 22H13.3337C13.6911 22 14.0212 21.8155 14.1999 21.5161C14.3787 21.2167 14.3787 20.8478 14.1999 20.5484C14.0213 20.249 13.6911 20.0645 13.3337 20.0645H10.6663Z" fill="#FAFAFA"/>
</svg>
