<svg width="24" height="24" viewBox="0 0 24 24" fill="none" xmlns="http://www.w3.org/2000/svg">
<path d="M17.3495 4C17.3289 4 17.3084 4.00342 17.2913 4.00342C16.9834 4.02806 16.7644 4.20495 16.737 4.31C16.6652 4.55019 16.6138 4.86977 16.6617 5.09081C16.7096 5.31184 16.7781 5.4446 17.1476 5.50893C17.7156 5.60747 18.3588 5.48703 18.92 5.28892C19.3648 5.13118 19.748 4.92554 19.991 4.77089C19.9773 4.74796 19.9636 4.72743 19.943 4.70998C19.8917 4.66687 19.7959 4.62342 19.6488 4.59673C19.3511 4.54301 18.8892 4.56662 18.417 4.54301L18.2699 4.53548L18.1843 4.41573C17.9722 4.12249 17.6848 4.00753 17.4076 4.00034H17.3495V4ZM16.8704 6.07384C16.737 6.42181 16.7165 6.76568 16.7746 7.08389C16.8499 7.50133 17.0997 7.84007 17.24 8.2096C17.719 9.46191 17.2674 9.76301 16.5283 9.95804C17.2913 10.6424 17.6677 11.4772 17.7258 12.295C18.7523 10.7313 18.9337 9.34558 17.7703 7.89481C17.5411 7.61082 17.4316 7.27208 17.3803 6.97782C17.3289 6.70752 17.3529 6.45261 17.5069 6.15972C17.3529 6.15595 17.1989 6.14227 17.0449 6.11558C16.9834 6.10497 16.9286 6.09094 16.8704 6.07384ZM6.94437 7.58345C5.95073 7.57661 5.12065 8.44911 5.00569 9.63641C5.36701 9.2703 5.86177 9.03079 6.58339 9.0479C5.89222 9.51666 5.43065 10.047 5.06625 10.5979C5.12681 10.8785 5.22501 11.1624 5.36735 11.4499C6.67064 9.65352 7.45419 10.4371 7.85452 11.4533C8.22405 10.769 8.79203 10.2215 9.46267 9.80749C8.73045 8.21987 7.77924 7.59029 6.94437 7.58345ZM13.1101 9.46533C12.9938 9.46533 12.874 9.46533 12.7543 9.47218C12.33 9.48928 11.8989 9.54745 11.478 9.64668C9.89379 10.0231 8.52515 10.9469 8.12824 12.4216C8.88784 12.6816 9.52084 12.9827 10.0683 13.2907C11.1495 13.4515 12.2513 13.4002 13.1956 13.2051C14.513 12.9314 15.4881 12.3361 15.7037 11.8468L16.2648 12.0931C15.8884 12.9622 14.7354 13.5165 13.3222 13.8073C12.6721 13.9442 11.957 14.0126 11.2248 14.0024C11.3719 14.0982 11.5122 14.1906 11.6491 14.2795C12.5763 14.8817 13.3051 15.2957 14.4753 15.2376C15.6934 15.1384 16.6172 14.3514 16.9697 13.3694C17.3187 12.3874 17.1202 11.2309 15.9877 10.307C15.3307 9.76643 14.2563 9.47217 13.1101 9.46533ZM9.94512 13.9271C9.79457 14.2282 9.66797 14.543 9.58243 14.8236C8.94601 15.1247 8.72702 15.2376 8.39171 15.9595C7.17704 16.483 6.66722 17.2666 6.29289 18.406C5.52372 18.6147 4.89517 18.5771 4.13523 18.0672C3.71985 18.6181 4.34224 19.1074 4.90988 19.3298C5.63389 19.6138 6.63129 19.4256 6.8075 19.0835C7.37207 17.9714 7.87162 17.2118 8.91863 16.4488C9.36687 16.4009 9.68507 16.3667 10.0922 15.8329C10.8313 15.9082 11.4369 15.5592 11.9741 15.2136C12.241 15.8261 12.7782 16.6439 12.6824 17.229C12.2787 17.554 12.4087 17.9578 12.3984 18.0536C12.6037 18.666 14.6635 17.8551 16.0937 18.6695C16.8602 19.1074 17.0484 20.2058 18.4683 19.9662C18.701 19.9286 18.6497 19.7199 18.4889 19.6617C17.2092 19.193 17.5445 18.9432 16.956 18.0159C15.8611 17.9886 14.927 17.838 13.6918 17.465C13.3359 17.3624 13.8013 16.6165 14.1468 15.8569C13.004 15.8261 12.1692 15.3539 11.3103 14.7962C10.8861 14.519 10.4481 14.2214 9.94512 13.9271Z" fill="#FAFAFA"/>
</svg>
