<svg width="24" height="24" viewBox="0 0 24 24" fill="none" xmlns="http://www.w3.org/2000/svg">
<path d="M13.6442 3.29032C13.6442 3.63253 13.7802 3.9607 14.0221 4.20272C14.2642 4.44465 14.5923 4.58065 14.9345 4.58065H20.4184C20.8794 4.58065 21.3054 4.33472 21.5359 3.93548C21.7664 3.53624 21.7664 3.04441 21.5359 2.64516C21.3054 2.24591 20.8794 2 20.4184 2H14.9345C14.5923 2 14.2642 2.13598 14.0221 2.37793C13.7802 2.61997 13.6442 2.94812 13.6442 3.29032Z" fill="#FAFAFA"/>
<path d="M14.9345 7.80645H20.4184C20.8794 7.80645 21.3054 8.05237 21.5359 8.45161C21.7664 8.85086 21.7664 9.34269 21.5359 9.74194C21.3054 10.1412 20.8794 10.3871 20.4184 10.3871H14.9345C14.4736 10.3871 14.0475 10.1412 13.8171 9.74194C13.5866 9.34269 13.5866 8.85086 13.8171 8.45161C14.0475 8.05238 14.4736 7.80645 14.9345 7.80645Z" fill="#FAFAFA"/>
<path d="M20.4184 13.6129H14.9345C14.4736 13.6129 14.0475 13.8588 13.8171 14.2581C13.5866 14.6573 13.5866 15.1491 13.8171 15.5484C14.0475 15.9476 14.4736 16.1935 14.9345 16.1935H20.4184C20.8794 16.1935 21.3054 15.9476 21.5359 15.5484C21.7664 15.1491 21.7664 14.6573 21.5359 14.2581C21.3054 13.8588 20.8794 13.6129 20.4184 13.6129Z" fill="#FAFAFA"/>
<path d="M9.77323 22H4.28936C3.8284 22 3.40238 21.7541 3.17189 21.3548C2.9414 20.9556 2.9414 20.4638 3.17189 20.0645C3.40237 19.6653 3.8284 19.4194 4.28936 19.4194H9.77323C10.2342 19.4194 10.6602 19.6653 10.8907 20.0645C11.1212 20.4638 11.1212 20.9556 10.8907 21.3548C10.6602 21.7541 10.2342 22 9.77323 22Z" fill="#FAFAFA"/>
<path d="M14.9345 19.4194H20.4184C20.8794 19.4194 21.3054 19.6653 21.5359 20.0645C21.7664 20.4638 21.7664 20.9556 21.5359 21.3548C21.3054 21.7541 20.8794 22 20.4184 22H14.9345C14.4736 22 14.0475 21.7541 13.8171 21.3548C13.5866 20.9556 13.5866 20.4638 13.8171 20.0645C14.0475 19.6653 14.4736 19.4194 14.9345 19.4194Z" fill="#FAFAFA"/>
<path d="M9.77323 16.1935H4.28936C3.8284 16.1935 3.40238 15.9476 3.17189 15.5484C2.9414 15.1491 2.9414 14.6573 3.17189 14.2581C3.40237 13.8588 3.8284 13.6129 4.28936 13.6129H9.77323C10.2342 13.6129 10.6602 13.8588 10.8907 14.2581C11.1212 14.6573 11.1212 15.1491 10.8907 15.5484C10.6602 15.9476 10.2342 16.1935 9.77323 16.1935Z" fill="#FAFAFA"/>
<path d="M4.28936 10.3871H9.77323C10.2342 10.3871 10.6602 10.1412 10.8907 9.74194C11.1212 9.34269 11.1212 8.85086 10.8907 8.45161C10.6602 8.05237 10.2342 7.80645 9.77323 7.80645H4.28936C3.8284 7.80645 3.40237 8.05238 3.17189 8.45161C2.9414 8.85086 2.9414 9.34269 3.17189 9.74194C3.40238 10.1412 3.8284 10.3871 4.28936 10.3871Z" fill="#FAFAFA"/>
<path d="M3.37697 4.20272C3.13503 3.9607 2.99904 3.63253 2.99904 3.29032C2.99904 2.94812 3.13504 2.61997 3.37697 2.37793C3.61899 2.13598 3.94716 2 4.28937 2H9.77324C10.2342 2 10.6602 2.24591 10.8907 2.64516C11.1212 3.04441 11.1212 3.53624 10.8907 3.93548C10.6602 4.33472 10.2342 4.58065 9.77324 4.58065H4.28937C3.94716 4.58065 3.61901 4.44465 3.37697 4.20272Z" fill="#FAFAFA"/>
</svg>
