<svg width="24" height="24" viewBox="0 0 24 24" fill="none" xmlns="http://www.w3.org/2000/svg">
<path fill-rule="evenodd" clip-rule="evenodd" d="M7.89082 8.69088C7.60964 8.97207 7.60964 9.42794 7.89082 9.70913C8.172 9.99029 8.62788 9.99029 8.90906 9.70913L11.9999 6.61823L15.0908 9.70913C15.372 9.99029 15.8279 9.99029 16.1091 9.70913C16.3902 9.42794 16.3902 8.97207 16.1091 8.69088L12.5091 5.09089C12.374 4.95586 12.1909 4.88 11.9999 4.88C11.809 4.88 11.6258 4.95586 11.4908 5.09089L7.89082 8.69088ZM16.1091 15.3091C16.3902 15.0279 16.3902 14.5721 16.1091 14.2909C15.8279 14.0097 15.372 14.0097 15.0908 14.2909L11.9999 17.3818L8.90906 14.2909C8.62788 14.0097 8.172 14.0097 7.89082 14.2909C7.60964 14.5721 7.60964 15.0279 7.89082 15.3091L11.4908 18.9091C11.772 19.1903 12.2279 19.1903 12.5091 18.9091L16.1091 15.3091Z" fill="#FAFAFA"/>
</svg>
