<svg width="24" height="24" viewBox="0 0 24 24" fill="none" xmlns="http://www.w3.org/2000/svg">
<path d="M8.8234 4L7.64695 6.3529H3.647C2.73458 6.3529 2 7.0875 2 7.99989V18.353C2 19.2654 2.73461 20 3.647 20H19.6471C20.5595 20 21.2941 19.2654 21.2941 18.353V7.99989C21.2941 7.08747 20.5595 6.3529 19.6471 6.3529H15.6472L14.4707 4H8.8234ZM11.647 8.23534C14.3676 8.23534 16.5882 10.4559 16.5882 13.1765C16.5882 15.8971 14.3676 18.1177 11.647 18.1177C8.92639 18.1177 6.70582 15.8971 6.70582 13.1765C6.70582 10.4559 8.92639 8.23534 11.647 8.23534ZM11.647 9.64714C9.68936 9.64714 8.1175 11.219 8.1175 13.1766C8.1175 15.1343 9.68933 16.7061 11.647 16.7061C13.6046 16.7061 15.1765 15.1343 15.1765 13.1766C15.1765 11.219 13.6047 9.64714 11.647 9.64714Z" fill="#FAFAFA"/>
</svg>
