<svg width="24" height="24" viewBox="0 0 24 24" fill="none" xmlns="http://www.w3.org/2000/svg">
<path fill-rule="evenodd" clip-rule="evenodd" d="M12 22C17.5228 22 22 17.5228 22 12C22 6.47715 17.5228 2 12 2C6.47715 2 2 6.47715 2 12C2 17.5228 6.47715 22 12 22ZM15.5355 8.46428C15.1449 8.07376 14.5118 8.07376 14.1213 8.46428L11.9999 10.5857L9.87865 8.46447C9.48813 8.07394 8.85496 8.07394 8.46444 8.46447C8.07391 8.85499 8.07391 9.48816 8.46444 9.87868L10.5856 11.9999L8.4644 14.1211C8.07388 14.5117 8.07388 15.1448 8.4644 15.5353C8.85493 15.9259 9.48809 15.9259 9.87862 15.5353L11.9999 13.4141L14.1213 15.5355C14.5118 15.9261 15.145 15.9261 15.5355 15.5355C15.926 15.145 15.926 14.5118 15.5355 14.1213L13.4141 11.9999L15.5355 9.87849C15.926 9.48797 15.926 8.8548 15.5355 8.46428Z" fill="#FAFAFA"/>
</svg>
