<svg width="24" height="24" viewBox="0 0 24 24" fill="none" xmlns="http://www.w3.org/2000/svg">
<path d="M5.49293 4.36832V19.2254C5.49293 19.5246 5.76516 19.7968 6.06437 19.7969H17.4929C17.7921 19.7969 18.0642 19.5246 18.0643 19.2254V7.79691C18.0643 7.64716 18.0034 7.49818 17.8977 7.39215L14.4691 3.96356C14.363 3.85792 14.2141 3.79658 14.0643 3.79688H6.06436C5.7429 3.79914 5.49489 4.11892 5.49293 4.36832ZM6.63581 4.93976H13.493V7.79696C13.493 8.09616 13.7652 8.3683 14.0644 8.3684H16.9216V18.6541H6.63586L6.63581 4.93976ZM14.6358 5.74336L16.1179 7.22552H14.6358V5.74336Z" fill="#FAFAFA"/>
</svg>
