<svg width="24" height="24" viewBox="0 0 24 24" fill="none" xmlns="http://www.w3.org/2000/svg">
<path fill-rule="evenodd" clip-rule="evenodd" d="M13.1656 7.47249L15.8288 4.80932C16.7571 3.88094 18.2623 3.88094 19.1906 4.80932C20.119 5.73762 20.119 7.24283 19.1906 8.17116L14.7081 12.6537C13.7808 13.581 12.2782 13.5821 11.3497 12.6572L11.3462 12.6537C10.9337 12.2411 10.2646 12.2411 9.85209 12.6537C9.43953 13.0663 9.43953 13.7353 9.85209 14.1479V14.1479C11.6057 15.9015 14.4487 15.9015 16.2023 14.1479L20.6848 9.66536C22.4384 7.91184 22.4384 5.0687 20.6848 3.31514C18.9313 1.56162 16.0882 1.56162 14.3346 3.31514L10.6421 7.0077C11.5002 6.95425 12.3688 7.10916 13.1657 7.4725L13.1656 7.47249ZM4.80933 19.1907C3.88096 18.2623 3.88096 16.7572 4.80933 15.8288L9.29188 11.3463C10.2193 10.4189 11.7221 10.4179 12.6506 11.3432L12.6537 11.3463C13.0663 11.7588 13.7352 11.7588 14.1479 11.3463C14.5604 10.9336 14.5604 10.2647 14.1479 9.85206C12.3943 8.09854 9.55122 8.09854 7.79768 9.85206L5.5564 12.0933L3.31513 14.3346C1.56162 16.0882 1.56162 18.9313 3.31513 20.6849C5.06871 22.4384 7.91177 22.4384 9.66531 20.6849L13.358 16.9921C12.5 17.0457 11.6313 16.8907 10.8345 16.5275L8.17131 19.1906C7.24294 20.119 5.73781 20.119 4.8095 19.1906L4.80933 19.1907Z" fill="#FAFAFA"/>
</svg>
