<svg width="24" height="24" viewBox="0 0 24 24" fill="none" xmlns="http://www.w3.org/2000/svg">
<path d="M12.8888 4.97278V8.08689H18.2266C19.206 8.08689 20 8.86476 20 9.82088V20.266C20 21.2237 19.2065 22 18.2266 22H5.77341C4.79396 22 4 21.2221 4 20.266V9.82088C4 8.8632 4.79348 8.08689 5.77341 8.08689H11.1112V4.97L10.1072 5.95214C9.76327 6.28856 9.20549 6.28843 8.8559 5.94644C8.50883 5.6069 8.51084 5.05431 8.85014 4.72237L11.3758 2.25157C11.5468 2.08431 11.7707 2.00021 11.9956 2L12.0024 2.00258C12.2281 2.00306 12.4526 2.08655 12.6213 2.25156L15.147 4.72236C15.4909 5.05885 15.4908 5.60451 15.1412 5.94643C14.794 6.28603 14.2292 6.28407 13.8899 5.95213L12.8888 4.97278ZM11.111 9.82604H5.77767V20.2609H18.2221V9.82604H12.8888V13.3056C12.8888 13.7851 12.4943 14.1738 11.9999 14.1738C11.509 14.1738 11.111 13.7847 11.111 13.3056V9.82604ZM8.44435 8.08689V9.82604H15.5555V8.08689H8.44435ZM11.1112 8.08689H12.8888V9.82604H11.111L11.1112 8.08689Z" fill="#FAFAFA"/>
</svg>
