<svg width="24" height="24" viewBox="0 0 24 24" fill="none" xmlns="http://www.w3.org/2000/svg">
<path fill-rule="evenodd" clip-rule="evenodd" d="M20.6359 2C20.2742 2 19.9272 2.14371 19.6714 2.39953L13.643 8.4279L13 11L15.5721 10.357L21.6005 4.3286C21.8563 4.07279 22 3.72584 22 3.36406C22 3.00229 21.8563 2.65534 21.6005 2.39953C21.3447 2.14371 20.9977 2 20.6359 2ZM12 4C13.1208 4 14.1885 4.23164 15.1577 4.64957L14.3323 5.47502C14.28 5.45628 14.2275 5.43815 14.1747 5.42066C14.2029 5.4626 14.2308 5.50537 14.2583 5.54894L13.4788 6.32845C13.0285 5.52214 12.5028 5.06672 11.9994 5.06672V5.06743C11.2728 5.06743 10.4995 6.01677 9.97349 7.60013C10.6738 7.68832 11.379 7.73058 12.084 7.7269C11.9321 7.89835 11.8233 8.10423 11.7675 8.32731L11.6503 8.7965C10.9902 8.78311 10.3341 8.73188 9.68461 8.64404H9.68449C9.49783 9.47604 9.3765 10.4274 9.3445 11.4667H11.004C10.9749 11.855 11.1061 12.2417 11.3716 12.5334H9.34595C9.37728 13.5746 9.49861 14.5272 9.68661 15.3599C11.2212 15.1533 12.7798 15.1533 14.3145 15.3599C14.5019 14.5275 14.6232 13.5747 14.6552 12.5334H14.4689L15.6727 12.2325C15.9236 12.1697 16.1527 12.04 16.3356 11.8571L16.726 11.4667L18.9114 11.4666C18.8633 10.8392 18.7315 10.2353 18.5268 9.66587L19.3504 8.84229C19.7684 9.8115 20 10.8792 20 12C20 16.4114 16.4114 20 12 20C7.58855 20 4 16.4114 4 12C4 7.58855 7.58855 4 12 4ZM17.5619 16.1286C16.8425 15.8826 16.1092 15.6866 15.3673 15.5392C15.5673 14.6313 15.6886 13.6186 15.7186 12.5333H18.9112C18.8085 13.8747 18.3218 15.1087 17.5619 16.1286ZM5.08864 12.5334C5.19129 13.8745 5.67711 15.1082 6.43749 16.128C7.15748 15.8827 7.89066 15.6868 8.63258 15.5395C8.43325 14.6308 8.31191 13.6188 8.28124 12.5334H5.08864ZM8.28127 11.4668C8.31193 10.3827 8.43325 9.37153 8.63256 8.46424C7.89061 8.31625 7.15865 8.11892 6.438 7.87226C5.67734 8.89142 5.19134 10.1255 5.08867 11.4668H8.28127ZM7.21011 7.002C7.76725 7.17459 8.33168 7.31655 8.90145 7.4272C9.14945 6.64123 9.46075 5.9613 9.82473 5.42134C8.83543 5.74933 7.94678 6.29666 7.21011 7.002ZM7.21011 16.9986C7.76678 16.8259 8.33145 16.6846 8.90142 16.5733C9.14876 17.3593 9.46008 18.0386 9.82342 18.5786C8.83475 18.2506 7.94679 17.7033 7.21023 16.9987L7.21011 16.9986ZM12 18.9332C11.2733 18.9332 10.5 17.9839 9.97406 16.4006C11.3194 16.2312 12.682 16.2312 14.026 16.4006C13.5 17.9839 12.7266 18.9332 12 18.9332ZM14.1767 18.5779C14.54 18.0379 14.8514 17.3586 15.0987 16.5727C15.6687 16.6833 16.2333 16.8247 16.7906 16.998C16.054 17.7026 15.1653 18.25 14.1767 18.5779Z" fill="#FAFAFA"/>
</svg>
