<svg width="24" height="24" viewBox="0 0 24 24" fill="none" xmlns="http://www.w3.org/2000/svg">
<path fill-rule="evenodd" clip-rule="evenodd" d="M9.64984 4L6.53884 11H9.98584C10.6758 11 11.1618 11.675 10.9438 12.33L9.28784 17.297L16.5858 10H14.0158C13.8437 9.99996 13.6744 9.95591 13.524 9.87204C13.3736 9.78816 13.2472 9.66723 13.1568 9.52075C13.0663 9.37426 13.0148 9.20708 13.0071 9.03508C12.9994 8.86308 13.0358 8.69197 13.1128 8.538L15.3818 4H9.64984ZM8.08384 2.6C8.24584 2.235 8.60684 2 9.00684 2H16.9838C17.7338 2 18.2228 2.79 17.8868 3.462L15.6178 8H18.9758C19.8758 8 20.3258 9.088 19.6898 9.724L7.73684 21.677C6.98284 22.431 5.72684 21.655 6.06484 20.644L8.61284 13H5.01484C4.84659 13 4.681 12.958 4.53312 12.8777C4.38524 12.7974 4.25975 12.6815 4.16806 12.5404C4.07636 12.3994 4.02136 12.2376 4.00805 12.0699C3.99474 11.9022 4.02354 11.7338 4.09184 11.58L8.08384 2.6Z" fill="#FAFAFA"/>
</svg>
