<svg width="24" height="24" viewBox="0 0 24 24" fill="none" xmlns="http://www.w3.org/2000/svg">
<path d="M10.5859 12L4.92903 6.34312C4.53851 5.9526 4.53851 5.31943 4.92903 4.92891C5.31955 4.53838 5.95272 4.53838 6.34324 4.92891L12.0001 10.5858L17.657 4.92891C18.0475 4.53838 18.6806 4.53838 19.0712 4.92891C19.4617 5.31943 19.4617 5.9526 19.0712 6.34312L13.4143 12L19.0712 17.6568C19.4617 18.0474 19.4617 18.6805 19.0712 19.071C18.6806 19.4616 18.0475 19.4616 17.657 19.071L12.0001 13.4142L6.34324 19.071C5.95272 19.4616 5.31956 19.4616 4.92903 19.071C4.53851 18.6805 4.53851 18.0474 4.92903 17.6568L10.5859 12Z" fill="#FAFAFA"/>
</svg>
