<svg width="24" height="24" viewBox="0 0 24 24" fill="none" xmlns="http://www.w3.org/2000/svg">
<path d="M12 3C10.0182 2.99932 8.09164 3.65278 6.5192 4.85896C4.94676 6.06514 3.81641 7.7566 3.30354 9.67086C2.79067 11.5851 2.92396 13.6151 3.68274 15.4459C4.44152 17.2767 5.78334 18.8058 7.5 19.796L8.365 20.296L7.364 22.028L6.498 21.528C4.82564 20.5625 3.43704 19.1735 2.47189 17.5009C1.50674 15.8283 0.999091 13.9311 1 12C1 5.925 5.925 1 12 1C13.203 1 14.362 1.193 15.448 1.552L16.398 1.865L15.771 3.765L14.821 3.451C13.9107 3.15128 12.9584 2.99903 12 3ZM20.981 4.414L15.439 9.956C15.9363 10.7929 16.1112 11.7825 15.9311 12.7392C15.751 13.6959 15.2282 14.5541 14.4606 15.153C13.693 15.7518 12.7334 16.0501 11.7616 15.9921C10.7898 15.934 9.87258 15.5235 9.18177 14.8376C8.49096 14.1516 8.07401 13.2373 8.00909 12.2659C7.94417 11.2946 8.23571 10.3329 8.82909 9.5611C9.42247 8.78932 10.2769 8.26043 11.2324 8.07355C12.1878 7.88668 13.1786 8.05466 14.019 8.546L19.567 3L20.981 4.414ZM22.135 7.602L22.448 8.552C22.807 9.638 23 10.797 23 12C23 16.071 20.788 19.625 17.504 21.526L16.639 22.026L15.637 20.296L16.502 19.795C17.8702 19.0051 19.0062 17.8688 19.7958 16.5004C20.5854 15.132 21.0007 13.5798 21 12C21.0014 11.0414 20.8495 10.0887 20.55 9.178L20.236 8.228L22.135 7.602ZM12 10C11.4696 10 10.9609 10.2107 10.5858 10.5858C10.2107 10.9609 10 11.4696 10 12C10 12.5304 10.2107 13.0391 10.5858 13.4142C10.9609 13.7893 11.4696 14 12 14C12.5304 14 13.0391 13.7893 13.4142 13.4142C13.7893 13.0391 14 12.5304 14 12C14 11.4696 13.7893 10.9609 13.4142 10.5858C13.0391 10.2107 12.5304 10 12 10Z" fill="#FAFAFA"/>
</svg>
