<svg width="24" height="24" viewBox="0 0 24 24" fill="none" xmlns="http://www.w3.org/2000/svg">
<path d="M20.8242 11.1285L12.3735 4.12954C12.1651 3.95682 11.8632 3.95682 11.6548 4.12954L3.20406 11.1285C2.96437 11.3269 2.93102 11.682 3.12961 11.9217C3.32802 12.1613 3.68332 12.1948 3.92287 11.9962L5.47902 10.7074V19.4366C5.47902 19.7477 5.73118 20 6.04238 20H17.986C18.2972 20 18.5494 19.7477 18.5494 19.4366V10.7074L20.1055 11.9962C20.2108 12.0833 20.338 12.1256 20.4646 12.1256C20.6267 12.1256 20.7874 12.0561 20.8988 11.9215C21.0974 11.6818 21.064 11.3267 20.8244 11.1283L20.8242 11.1285ZM13.5916 18.8735H10.4366V13.9283H13.5916V18.8735ZM17.4226 18.8735H14.7184V13.365C14.7184 13.0539 14.4662 12.8016 14.155 12.8016H9.87342C9.56221 12.8016 9.31005 13.0539 9.31005 13.365V18.8735H6.60585V9.77436L12.0143 5.29512L17.4227 9.77436V18.8735H17.4226Z" fill="#FAFAFA"/>
</svg>
