<svg width="24" height="24" viewBox="0 0 24 24" fill="none" xmlns="http://www.w3.org/2000/svg">
<path d="M20.5024 10.1086C20.2176 10.1113 19.8461 10.1595 19.7488 9.81577C19.5783 9.21219 19.3372 8.63096 19.031 8.08363C18.9408 7.92559 18.9667 7.72738 19.0952 7.59792L19.3595 7.33363C19.9452 6.74347 19.9452 5.79168 19.3595 5.20146L18.8131 4.65503C18.0649 3.93629 17.0319 4.15057 16.4167 4.91931C16.2873 5.04699 16.0891 5.07377 15.931 4.98359C15.3837 4.67735 14.8025 4.43628 14.1989 4.26573C14.0248 4.21395 13.906 4.05414 13.906 3.87288C14.0114 2.89788 13.4319 2.01754 12.3989 2.00146H11.6275C10.598 2.01754 10.0132 2.897 10.1203 3.87288C10.1203 4.05413 10.0016 4.21394 9.82749 4.26573C9.22391 4.43627 8.64268 4.67733 8.09535 4.98359C7.78552 5.16931 7.53821 4.85145 7.34535 4.65503C6.75519 4.06932 5.8034 4.06932 5.21318 4.65503L4.66674 5.20146C4.08103 5.79163 4.08103 6.74341 4.66674 7.33363C4.87032 7.53453 5.17924 7.76755 4.99531 8.08363C4.68907 8.63094 4.448 9.21219 4.27745 9.81577C4.22567 9.98898 4.06585 10.1086 3.8846 10.1086C2.9096 10.0033 2.02926 10.5827 2.01318 11.6158V12.3872C2.02925 13.4166 2.90872 14.0015 3.8846 13.8943C4.06585 13.8943 4.22566 14.0139 4.27745 14.1872C4.44799 14.7907 4.68905 15.372 4.99531 15.9193C5.08549 16.0773 5.0596 16.2755 4.93103 16.405L4.66674 16.6693C4.08103 17.2595 4.08103 18.2112 4.66674 18.8015L5.21318 19.3479C5.80335 19.9336 6.75513 19.9336 7.34535 19.3479C7.54714 19.1434 7.77838 18.8381 8.09535 19.0193C8.64266 19.3256 9.22391 19.5666 9.82749 19.7372C10.0007 19.789 10.1203 19.9488 10.1203 20.1301C10.015 21.1051 10.5945 21.9854 11.6275 22.0015H12.3989C13.2319 21.9997 13.906 21.3238 13.906 20.4908C13.9033 20.206 13.8551 19.8345 14.1989 19.7372C14.8025 19.5667 15.3837 19.3256 15.931 19.0194C16.0891 18.931 16.2873 18.9569 16.4167 19.0836L16.681 19.3479C17.2712 19.9336 18.223 19.9336 18.8132 19.3479L19.3596 18.8015C19.9453 18.2113 19.9453 17.2595 19.3596 16.6693C19.156 16.4684 18.8471 16.2354 19.0311 15.9193C19.3364 15.372 19.5775 14.7908 19.7489 14.1872C19.8007 14.014 19.9605 13.8943 20.1418 13.8943C21.1168 13.9997 21.9971 13.4202 22.0132 12.3872V11.6158C22.0114 10.7828 21.3354 10.1086 20.5024 10.1086ZM12.0131 17.3587C10.5926 17.3569 9.23103 16.7917 8.22761 15.7872C7.22316 14.7837 6.65799 13.4219 6.6562 12.0018C6.95084 4.89457 17.0767 4.89742 17.3704 12.0018C17.3686 13.4223 16.8034 14.7838 15.799 15.7882C14.7954 16.7918 13.4333 17.3569 12.0131 17.3587Z" fill="#FAFAFA"/>
<path d="M12.0129 7.35874C10.7817 7.35963 9.60132 7.8498 8.73085 8.71945C7.86122 9.58998 7.37103 10.7703 7.37013 12.0015C7.62459 18.1613 16.4023 18.1594 16.6558 12.0015C16.6549 10.7703 16.1647 9.58992 15.2942 8.71945C14.4246 7.84982 13.2441 7.35963 12.0129 7.35874ZM12.3701 15.2156C12.3701 15.4129 12.2102 15.5728 12.0129 15.5728C11.8156 15.5728 11.6558 15.413 11.6558 15.2156V14.8585H10.1379C9.94328 14.8549 9.78793 14.696 9.78793 14.5014C9.78793 14.3067 9.94328 14.1478 10.1379 14.1442H10.4058V9.85491C10.221 9.82902 10.0879 9.66563 10.0986 9.4799C10.1102 9.29419 10.262 9.14775 10.4486 9.14419H11.6558V8.78705C11.6584 8.59241 11.8174 8.43526 12.0129 8.43526C12.2084 8.43526 12.3674 8.59241 12.37 8.78705V9.14419C13.995 8.93349 14.9199 10.971 13.645 12.0013C14.0236 12.3058 14.2441 12.7656 14.245 13.2513C14.237 13.7236 14.0281 14.1692 13.6692 14.4772C13.3111 14.7843 12.8379 14.9227 12.3701 14.8584V15.2156Z" fill="#FAFAFA"/>
<path d="M12.6379 9.85853H11.12V11.6442H12.6379C13.1307 11.6442 13.5307 11.2442 13.5307 10.7514C13.5307 10.2585 13.1307 9.85853 12.6379 9.85853Z" fill="#FAFAFA"/>
<path d="M12.6379 12.3583H11.12V14.144H12.6379C13.1307 14.144 13.5307 13.744 13.5307 13.2512C13.5307 12.7583 13.1307 12.3583 12.6379 12.3583Z" fill="#FAFAFA"/>
</svg>
