<svg width="24" height="24" viewBox="0 0 24 24" fill="none" xmlns="http://www.w3.org/2000/svg">
<path fill-rule="evenodd" clip-rule="evenodd" d="M8.50151 10.8898H16.6322V9.73598C16.6322 9.6334 16.6871 9.54557 16.7797 9.50065C16.8722 9.45572 16.9754 9.46779 17.0559 9.53149L19.9006 11.7955C19.965 11.8472 19.9992 11.9176 19.9992 12C19.9992 12.0825 19.965 12.1536 19.9006 12.2045L17.0559 14.4686C16.9754 14.5323 16.8722 14.5443 16.7797 14.4994C16.6871 14.4545 16.6322 14.3667 16.6322 14.2641V13.1102H8.50151C8.29031 13.1102 8.11734 12.9372 8.11734 12.726V11.2738C8.11734 11.0626 8.29033 10.8897 8.50151 10.8897V10.8898ZM14.3721 4.00014H5.01039C4.45458 4.00014 4 4.45471 4 5.01053V18.9896C4 19.5454 4.45457 20 5.01039 20H14.3721C14.9279 20 15.3825 19.5454 15.3825 18.9896V16.2139C15.3825 15.9934 15.2028 15.8137 14.9822 15.8137H13.5622C13.3416 15.8137 13.1619 15.9934 13.1619 16.2139V17.7794H6.22076V6.22058H13.1619V7.78607C13.1619 8.00665 13.3416 8.18633 13.5622 8.18633H14.9822C15.2028 8.18633 15.3825 8.00665 15.3825 7.78607L15.3818 5.01039C15.3818 4.45458 14.9273 4 14.3714 4L14.3721 4.00014Z" fill="#FAFAFA"/>
</svg>
