<svg width="24" height="24" viewBox="0 0 24 24" fill="none" xmlns="http://www.w3.org/2000/svg">
<path fill-rule="evenodd" clip-rule="evenodd" d="M4.56811 2C4.57873 2 4.58936 2.00001 4.60001 2.00001H8.4C8.41065 2.00001 8.42128 2 8.4319 2C8.68428 1.99997 8.93007 1.99994 9.13823 2.01695C9.36682 2.03563 9.63655 2.07969 9.90798 2.21798C10.2843 2.40973 10.5903 2.7157 10.782 3.092C10.9203 3.36342 10.9644 3.63319 10.9831 3.86178C11.0001 4.06994 11 4.31574 11 4.56812V8.43189C11 8.68427 11.0001 8.93007 10.9831 9.13823C10.9644 9.36682 10.9203 9.63655 10.782 9.90798C10.5903 10.2843 10.2843 10.5903 9.90801 10.782C9.63659 10.9203 9.36682 10.9644 9.13823 10.9831C8.93007 11.0001 8.68427 11 8.43189 11H4.56812C4.31574 11 4.06994 11.0001 3.86178 10.9831C3.63319 10.9644 3.36346 10.9203 3.09203 10.782C2.71573 10.5903 2.40975 10.2843 2.218 9.90801C2.07971 9.63659 2.03563 9.36682 2.01695 9.13823C1.99994 8.93007 1.99997 8.68428 2 8.4319C2 8.42128 2.00001 8.41065 2.00001 8.4V4.60001C2.00001 4.58936 2 4.57873 2 4.56811C1.99997 4.31572 1.99994 4.06994 2.01695 3.86178C2.03563 3.63319 2.07969 3.36346 2.21798 3.09203C2.40973 2.71573 2.7157 2.40975 3.092 2.218C3.36342 2.07971 3.63319 2.03563 3.86178 2.01695C4.06994 1.99994 4.31572 1.99997 4.56811 2ZM4.01145 4.01145C4.01107 4.0156 4.01069 4.01999 4.01031 4.02464C4.00078 4.14122 4.00001 4.30348 4.00001 4.60001V8.4C4.00001 8.69653 4.00078 8.85879 4.01031 8.97537C4.01069 8.98002 4.01107 8.98441 4.01145 8.98856C4.0156 8.98894 4.01999 8.98932 4.02464 8.9897C4.14122 8.99923 4.30348 9.00001 4.60001 9.00001H8.4C8.69653 9.00001 8.85879 8.99923 8.97537 8.9897C8.98002 8.98932 8.98441 8.98894 8.98856 8.98856C8.98894 8.98441 8.98932 8.98002 8.9897 8.97537C8.99923 8.85879 9.00001 8.69653 9.00001 8.4V4.60001C9.00001 4.30348 8.99923 4.14122 8.9897 4.02464C8.98932 4.01999 8.98894 4.0156 8.98856 4.01145C8.98441 4.01107 8.98002 4.01069 8.97537 4.01031C8.85879 4.00078 8.69653 4.00001 8.4 4.00001H4.60001C4.30348 4.00001 4.14122 4.00078 4.02464 4.01031C4.01999 4.01069 4.0156 4.01107 4.01145 4.01145ZM15.5681 2H19.4319C19.6843 1.99997 19.9301 1.99994 20.1383 2.01695C20.3668 2.03563 20.6365 2.07969 20.9079 2.21796C21.2845 2.40981 21.5903 2.71584 21.782 3.09192C21.9203 3.36335 21.9644 3.63318 21.9831 3.86177C22.0001 4.06993 22 4.31572 22 4.56809V8.43192C22 8.68429 22.0001 8.93008 21.9831 9.13824C21.9644 9.36683 21.9203 9.63658 21.782 9.90801C21.5903 10.2841 21.2845 10.5902 20.9079 10.782C20.6365 10.9203 20.3668 10.9644 20.1383 10.9831C19.9301 11.0001 19.6843 11 19.4319 11H15.5681C15.3157 11 15.0699 11.0001 14.8617 10.9831C14.6332 10.9644 14.3635 10.9203 14.0921 10.782C13.7155 10.5902 13.4097 10.2842 13.2181 9.90809C13.0797 9.63666 13.0356 9.36684 13.017 9.13824C12.9999 8.93008 13 8.68429 13 8.43192V4.56809C13 4.31572 12.9999 4.06993 13.017 3.86177C13.0356 3.63317 13.0797 3.36343 13.218 3.092C13.4097 2.71592 13.7155 2.40981 14.0921 2.21796C14.3635 2.07969 14.6332 2.03563 14.8617 2.01695C15.0699 1.99994 15.3157 1.99997 15.5681 2ZM15.0115 4.01145C15.0156 4.01107 15.02 4.01069 15.0246 4.01031C15.1412 4.00078 15.3035 4.00001 15.6 4.00001H19.4C19.6966 4.00001 19.8588 4.00078 19.9754 4.01031C19.98 4.01069 19.9844 4.01107 19.9885 4.01145C19.9889 4.0156 19.9893 4.02 19.9897 4.02464C19.9992 4.14123 20 4.30348 20 4.60001V8.4C20 8.69653 19.9992 8.85878 19.9897 8.97537C19.9893 8.98001 19.9889 8.9844 19.9886 8.98855C19.9844 8.98893 19.98 8.98932 19.9754 8.9897C19.8588 8.99923 19.6966 9.00001 19.4 9.00001H15.6C15.3035 9.00001 15.1412 8.99923 15.0246 8.9897C15.02 8.98932 15.0156 8.98894 15.0115 8.98856C15.0111 8.98441 15.0107 8.98001 15.0103 8.97537C15.0008 8.85878 15 8.69653 15 8.4V4.60001C15 4.30348 15.0008 4.14123 15.0103 4.02464C15.0107 4.02 15.0111 4.0156 15.0115 4.01145ZM5.50001 6.50001C5.50001 5.94772 5.94772 5.50001 6.50001 5.50001H6.51001C7.06229 5.50001 7.51001 5.94772 7.51001 6.50001C7.51001 7.05229 7.06229 7.50001 6.51001 7.50001H6.50001C5.94772 7.50001 5.50001 7.05229 5.50001 6.50001ZM16.5 6.50001C16.5 5.94772 16.9477 5.50001 17.5 5.50001H17.51C18.0623 5.50001 18.51 5.94772 18.51 6.50001C18.51 7.05229 18.0623 7.50001 17.51 7.50001H17.5C16.9477 7.50001 16.5 7.05229 16.5 6.50001ZM12 13C12 12.4477 12.4477 12 13 12H13.01C13.5623 12 14.01 12.4477 14.01 13C14.01 13.5523 13.5623 14 13.01 14H13C12.4477 14 12 13.5523 12 13ZM4.56809 13H8.43192C8.68429 13 8.93008 12.9999 9.13824 13.017C9.36684 13.0356 9.63658 13.0797 9.90801 13.218C10.2841 13.4097 10.5902 13.7155 10.782 14.0921C10.9203 14.3635 10.9644 14.6332 10.9831 14.8617C11.0001 15.0699 11 15.3157 11 15.5681V19.4319C11 19.6843 11.0001 19.9301 10.9831 20.1383C10.9644 20.3668 10.9203 20.6365 10.782 20.9079C10.5902 21.2845 10.2842 21.5903 9.90809 21.782C9.63666 21.9203 9.36683 21.9644 9.13824 21.9831C8.93008 22.0001 8.68429 22 8.43192 22H4.56809C4.31572 22 4.06993 22.0001 3.86177 21.9831C3.63318 21.9644 3.36343 21.9203 3.092 21.782C2.71592 21.5903 2.40981 21.2845 2.21796 20.9079C2.07969 20.6365 2.03563 20.3668 2.01695 20.1383C1.99994 19.9301 1.99997 19.6843 2 19.4319V15.5681C1.99997 15.3157 1.99994 15.0699 2.01695 14.8617C2.03563 14.6332 2.07969 14.3635 2.21796 14.0921C2.40981 13.7155 2.71584 13.4097 3.09192 13.2181C3.36335 13.0797 3.63317 13.0356 3.86177 13.017C4.06993 12.9999 4.31572 13 4.56809 13ZM4.01145 15.0115C4.0156 15.0111 4.02 15.0107 4.02464 15.0103C4.14123 15.0008 4.30348 15 4.60001 15H8.4C8.69653 15 8.85878 15.0008 8.97537 15.0103C8.98001 15.0107 8.98441 15.0111 8.98856 15.0115C8.98894 15.0156 8.98932 15.02 8.9897 15.0246C8.99923 15.1412 9.00001 15.3035 9.00001 15.6V19.4C9.00001 19.6966 8.99923 19.8588 8.9897 19.9754C8.98932 19.98 8.98894 19.9844 8.98856 19.9885C8.98441 19.9889 8.98001 19.9893 8.97537 19.9897C8.85878 19.9992 8.69653 20 8.4 20H4.60001C4.30348 20 4.14123 19.9992 4.02464 19.9897C4.02 19.9893 4.0156 19.9889 4.01145 19.9885C4.01107 19.9844 4.01069 19.98 4.01031 19.9754C4.00078 19.8588 4.00001 19.6966 4.00001 19.4V15.6C4.00001 15.3035 4.00078 15.1412 4.01031 15.0246C4.01069 15.02 4.01107 15.0156 4.01145 15.0115ZM15.5 14C15.5 13.4477 15.9477 13 16.5 13H21C21.5523 13 22 13.4477 22 14C22 14.5523 21.5523 15 21 15H16.5C15.9477 15 15.5 14.5523 15.5 14ZM14 15.5C14.5523 15.5 15 15.9477 15 16.5V21C15 21.5523 14.5523 22 14 22C13.4477 22 13 21.5523 13 21V16.5C13 15.9477 13.4477 15.5 14 15.5ZM21 16C21.5523 16 22 16.4477 22 17V21C22 21.5523 21.5523 22 21 22H17C16.4477 22 16 21.5523 16 21C16 20.4477 16.4477 20 17 20H20V17C20 16.4477 20.4477 16 21 16ZM5.50001 17.5C5.50001 16.9477 5.94772 16.5 6.50001 16.5H6.51001C7.06229 16.5 7.51001 16.9477 7.51001 17.5C7.51001 18.0523 7.06229 18.5 6.51001 18.5H6.50001C5.94772 18.5 5.50001 18.0523 5.50001 17.5ZM16.5 17.5C16.5 16.9477 16.9477 16.5 17.5 16.5H17.51C18.0623 16.5 18.51 16.9477 18.51 17.5C18.51 18.0523 18.0623 18.5 17.51 18.5H17.5C16.9477 18.5 16.5 18.0523 16.5 17.5Z" fill="#FAFAFA"/>
</svg>
