<svg width="24" height="24" viewBox="0 0 24 24" fill="none" xmlns="http://www.w3.org/2000/svg">
<path d="M12 2C6.47273 2 2 6.47273 2 12C2 17.5273 6.47273 22 12 22C17.5273 22 22 17.5273 22 12C22 6.47273 17.5273 2 12 2ZM17.2635 9.38182L11.3634 15.8453C11.1998 16.0272 10.9634 16.1362 10.7088 16.1453H10.6907C10.4452 16.1453 10.2179 16.0544 10.0452 15.8817L6.76327 12.5998C6.40873 12.2452 6.40873 11.6725 6.76327 11.3179C7.11782 10.9634 7.69055 10.9634 8.04509 11.3179L10.6541 13.9269L15.9176 8.16327C16.2539 7.79054 16.8267 7.76327 17.1994 8.10873C17.5721 8.44509 17.5994 9.01782 17.2539 9.39054L17.2635 9.38182Z" fill="#FAFAFA"/>
</svg>
