<svg width="24" height="24" viewBox="0 0 24 24" fill="none" xmlns="http://www.w3.org/2000/svg">
<path d="M13.6647 10.2377C13.7784 10.3515 13.7784 10.5344 13.6647 10.6466L10.5803 13.731C10.5246 13.7867 10.4493 13.8161 10.3763 13.8161C10.3032 13.8161 10.2279 13.7875 10.1722 13.731C10.0585 13.6173 10.0585 13.4343 10.1722 13.3221L13.2565 10.2377C13.3703 10.124 13.551 10.124 13.6647 10.2377ZM10.3762 11.8875C10.4492 11.8875 10.5245 11.8589 10.5802 11.8025L11.7368 10.6458C11.8506 10.5321 11.8506 10.3491 11.7368 10.2369C11.6231 10.1255 11.4402 10.1232 11.328 10.2369L10.1713 11.3936C10.0576 11.5073 10.0576 11.6903 10.1713 11.8025C10.2278 11.8589 10.3031 11.8875 10.3762 11.8875ZM13.2563 12.1654L12.0997 13.322C11.986 13.4357 11.986 13.6187 12.0997 13.7309C12.1554 13.7867 12.2307 13.816 12.3038 13.816C12.3768 13.816 12.4521 13.7874 12.5078 13.7309L13.6644 12.5743C13.7782 12.4606 13.7782 12.2776 13.6644 12.1654C13.5507 12.0532 13.37 12.0517 13.2563 12.1654ZM16.834 5.44926V18.5185C16.834 19.3265 16.1766 19.9839 15.3686 19.9839H8.46805C7.66007 19.9839 7.00269 19.3265 7.00269 18.5185V5.44926C7.00269 4.64127 7.66007 3.98389 8.46805 3.98389H15.3686C16.1766 3.98389 16.834 4.64127 16.834 5.44926ZM10.2798 4.5622V4.84909C10.2798 5.00873 10.4108 5.14052 10.5712 5.14052H13.264C13.4237 5.14052 13.5555 5.00949 13.5555 4.84909L13.5547 4.5622H10.2798ZM16.2557 5.44926C16.2557 4.9613 15.8588 4.5622 15.3686 4.5622H14.1352V4.84909C14.1352 5.32876 13.7459 5.71883 13.2655 5.71883H10.5712C10.0915 5.71883 9.70142 5.32953 9.70142 4.84909V4.5622H8.46799C7.98004 4.5622 7.58094 4.95904 7.58094 5.44926V18.5185C7.58094 19.0065 7.97777 19.4056 8.46799 19.4056H15.3686C15.8565 19.4056 16.2556 19.0087 16.2556 18.5185L16.2557 5.44926ZM13.4605 18.249H10.3762C10.2165 18.249 10.087 18.3785 10.087 18.5381C10.087 18.6978 10.2165 18.8273 10.3762 18.8273H13.4605C13.6201 18.8273 13.7497 18.6978 13.7497 18.5381C13.7497 18.3785 13.6201 18.249 13.4605 18.249Z" fill="#FAFAFA"/>
</svg>
