<svg width="24" height="24" viewBox="0 0 24 24" fill="none" xmlns="http://www.w3.org/2000/svg">
<path d="M7.85716 11.1839C7.48803 11.1839 7.18836 11.4785 7.18836 11.842C7.18836 12.2054 7.48774 12.5 7.85716 12.5C9.80405 12.5 11.3882 14.0484 11.3882 15.951C11.3882 16.3144 11.6876 16.609 12.057 16.609C12.4265 16.609 12.7259 16.3144 12.7259 15.951C12.7256 13.3226 10.5416 11.1839 7.85716 11.1839Z" fill="#FAFAFA"/>
<path d="M9.17505 7.64287H9.17458C8.80516 7.64287 8.50577 7.93743 8.50577 8.3009C8.50577 8.66436 8.80545 8.95892 9.17458 8.95892H9.17505C10.7316 8.95892 12.1951 9.55179 13.2954 10.6283C14.3949 11.704 15.0002 13.1336 15.0002 14.6546C15.0002 15.0181 15.2996 15.3126 15.669 15.3126C16.0384 15.3126 16.3378 15.0181 16.3378 14.6546C16.3378 12.781 15.5921 11.0197 14.2384 9.69502C12.8858 8.37174 11.0876 7.64289 9.17495 7.64289L9.17505 7.64287Z" fill="#FAFAFA"/>
<path d="M12.0993 2.12012C6.49482 2.12012 1.9355 6.6064 1.9355 12.1205C1.9355 13.7726 2.35286 15.4009 3.1454 16.851L1.31397 21.2107C1.21634 21.4428 1.26176 21.7091 1.43054 21.8975C1.5592 22.0412 1.74284 22.1201 1.93196 22.1201C1.99086 22.1201 2.05012 22.1124 2.10855 22.0969L7.01006 20.7764C8.55342 21.6565 10.3064 22.1201 12.099 22.1201C17.7036 22.1201 22.2632 17.6341 22.2632 12.1202C22.2634 6.60634 17.7036 2.12029 12.0992 2.12029L12.0993 2.12012ZM12.0993 20.8041C10.4569 20.8041 8.85283 20.356 7.46099 19.5083C7.35417 19.4434 7.2323 19.4097 7.10893 19.4097C7.04967 19.4097 6.99059 19.4174 6.93235 19.4329L3.07121 20.4731L4.50535 17.0595C4.58496 16.87 4.57019 16.6548 4.46541 16.4774C3.68559 15.1574 3.27315 13.6506 3.27315 12.1207C3.27315 7.33236 7.2325 3.43637 12.0993 3.43637C16.9661 3.43637 20.9259 7.33212 20.9259 12.1207C20.926 16.9088 16.9663 20.8043 12.0995 20.8043L12.0993 20.8041Z" fill="#FAFAFA"/>
</svg>
