<svg width="24" height="24" viewBox="0 0 24 24" fill="none" xmlns="http://www.w3.org/2000/svg">
<path d="M20.9934 16.6623L14.1539 4.81089C13.9113 4.38734 13.5266 4.06315 13.0681 3.89564C12.6096 3.72814 12.1066 3.72814 11.648 3.89564C11.1895 4.06314 10.8049 4.38732 10.5622 4.81089L3.72272 16.6623C3.35528 17.3039 3.35688 18.0925 3.72677 18.7327C4.09672 19.3729 4.77919 19.768 5.51854 19.77H19.1975C19.9369 19.768 20.6194 19.3729 20.9893 18.7327C21.3592 18.0925 21.3608 17.3039 20.9934 16.6623H20.9934ZM19.8917 18.0951C19.8229 18.2183 19.722 18.3207 19.5998 18.3913C19.4777 18.4619 19.3387 18.4982 19.1976 18.4963H5.51857C5.37747 18.4982 5.23843 18.4619 5.1163 18.3913C4.99411 18.3207 4.89327 18.2183 4.82441 18.0951C4.75264 17.9748 4.71469 17.8373 4.71469 17.6971C4.71469 17.5569 4.75264 17.4194 4.82441 17.2991L11.6702 5.4477C11.7623 5.28444 11.9095 5.15927 12.0854 5.09452C12.2614 5.02984 12.4545 5.02984 12.6305 5.09452C12.8065 5.15927 12.9537 5.28445 13.0457 5.4477L19.8915 17.2991C19.9633 17.4194 20.0012 17.5569 20.0012 17.6971C20.0012 17.8373 19.9633 17.9748 19.8915 18.0951H19.8917ZM11.7213 13.9111V8.52986C11.7213 8.30233 11.8427 8.09211 12.0398 7.97834C12.2368 7.86457 12.4796 7.86457 12.6766 7.97834C12.8736 8.0921 12.995 8.30232 12.995 8.52986V13.9111C12.995 14.1386 12.8736 14.3489 12.6766 14.4626C12.4796 14.5764 12.2368 14.5764 12.0398 14.4626C11.8427 14.3489 11.7213 14.1387 11.7213 13.9111ZM13.3325 16.2674C13.3325 16.5257 13.2299 16.7736 13.0471 16.9563C12.8644 17.1391 12.6165 17.2417 12.3582 17.2417C12.0998 17.2417 11.8519 17.1391 11.6692 16.9563C11.4864 16.7736 11.3838 16.5257 11.3838 16.2674C11.3838 16.009 11.4864 15.7611 11.6692 15.5784C11.852 15.3956 12.0998 15.293 12.3582 15.293C12.6161 15.2947 12.8629 15.3979 13.0453 15.5803C13.2276 15.7626 13.3308 16.0094 13.3325 16.2674Z" fill="#FAFAFA"/>
</svg>
