<svg width="24" height="24" viewBox="0 0 24 24" fill="none" xmlns="http://www.w3.org/2000/svg">
<path d="M17.8 16C18.976 16 19.9333 15.0427 19.9333 13.8667V6.13333C19.9333 4.95729 18.976 4 17.8 4H7.13333C5.95729 4 5 4.95729 5 6.13333V13.8667C5 15.0427 5.95729 16 7.13333 16H9.8V17.3333C9.8 18.2156 9.08229 18.9333 8.2 18.9333C7.90624 18.9333 7.66667 19.1729 7.66667 19.4667C7.66667 19.7604 7.90624 20 8.2 20H16.7333C17.0271 20 17.2667 19.7604 17.2667 19.4667C17.2667 19.1729 17.0271 18.9333 16.7333 18.9333C15.851 18.9333 15.1333 18.2156 15.1333 17.3333V16H17.8ZM6.06667 6.13333C6.06667 5.54376 6.54376 5.06667 7.13333 5.06667H17.8C18.3896 5.06667 18.8667 5.54376 18.8667 6.13333V10.9333H6.06667V6.13333ZM10.3333 18.9333C10.6698 18.4875 10.8667 17.9333 10.8667 17.3333V16H14.0667V17.3333C14.0667 17.9333 14.2667 18.4875 14.6 18.9333H10.3302H10.3333ZM7.13333 14.9333C6.54376 14.9333 6.06667 14.4562 6.06667 13.8667V12H18.8667V13.8667C18.8667 14.4562 18.3896 14.9333 17.8 14.9333H7.13333Z" fill="#FAFAFA"/>
</svg>
