<svg width="24" height="24" viewBox="0 0 24 24" fill="none" xmlns="http://www.w3.org/2000/svg">
<path d="M12 2.06402C6.48266 2.06402 2.00133 6.54593 2 12.064C2 17.582 6.48266 22.0653 12 22.0639H21.52C21.7137 22.0652 21.8887 21.9477 21.9637 21.7689C22.0375 21.5889 21.9963 21.3826 21.86 21.2451L19.3425 18.7285C21.0025 16.8945 22 14.5504 22 12.0639C22 6.54588 17.5173 2.06396 12.0013 2.06396L12 2.06402ZM7.73386 11.1425C7.97761 11.1425 8.21136 11.24 8.38512 11.4126C8.55762 11.5851 8.65512 11.8189 8.65512 12.0639C8.65512 12.3077 8.55762 12.5427 8.38512 12.7152C8.21137 12.8878 7.97762 12.9853 7.73386 12.9853C7.22512 12.9853 6.81261 12.5727 6.81261 12.0639C6.81261 11.5551 7.22512 11.1425 7.73386 11.1425ZM12 11.1425C12.2437 11.1425 12.4775 11.24 12.6512 11.4126C12.8237 11.5851 12.9212 11.8189 12.9212 12.0639C12.9212 12.3077 12.8237 12.5427 12.6512 12.7152C12.4775 12.8878 12.2438 12.9853 12 12.9853C11.755 12.9853 11.5212 12.8878 11.3475 12.7152C11.175 12.5427 11.0787 12.3077 11.0787 12.0639C11.0787 11.8189 11.175 11.5851 11.3475 11.4126C11.5212 11.24 11.755 11.1425 12 11.1425ZM16.2661 11.1425C16.7736 11.1425 17.1861 11.5551 17.1861 12.0639C17.1861 12.5727 16.7736 12.9853 16.2661 12.9853C16.0211 12.9853 15.7874 12.8878 15.6136 12.7152C15.4411 12.5427 15.3449 12.3077 15.3449 12.0639C15.3449 11.8189 15.4411 11.5851 15.6136 11.4126C15.7874 11.24 16.0211 11.1425 16.2661 11.1425Z" fill="#FAFAFA"/>
</svg>
