<svg width="24" height="24" viewBox="0 0 24 24" fill="none" xmlns="http://www.w3.org/2000/svg">
<path fill-rule="evenodd" clip-rule="evenodd" d="M4.85661 3.74686C4.55492 3.60395 4.19705 3.65488 3.9472 3.87627C3.69735 4.09767 3.60374 4.4468 3.7093 4.7635L6.12146 12L3.7093 19.2365C3.60374 19.5531 3.69735 19.9023 3.9472 20.1237C4.19705 20.3451 4.55492 20.396 4.85661 20.2531L20.6731 12.761C20.7377 12.7322 20.798 12.6953 20.8526 12.6517C21.0439 12.499 21.1665 12.2638 21.1665 12C21.1665 11.7905 21.0893 11.5991 20.9617 11.4527C20.9287 11.4149 20.8923 11.3799 20.8526 11.3483C20.798 11.3047 20.7377 11.2678 20.6732 11.2389L4.85661 3.74686ZM16.6273 11.1666L5.90798 6.08907L7.6005 11.1666H16.6273ZM7.6005 12.8333L5.90798 17.9109L16.6273 12.8333H7.6005Z" fill="#FAFAFA"/>
</svg>
