<svg width="24" height="24" viewBox="0 0 24 24" fill="none" xmlns="http://www.w3.org/2000/svg">
<path d="M10.1 11.1373L9.25014 10.2875L7.43437 8.47168C7.27604 8.31335 7.27608 8.05138 7.43431 7.89314C7.59261 7.73484 7.85458 7.73483 8.0129 7.89315L11.3878 11.2681C11.4772 11.3574 11.5046 11.4459 11.4994 11.5238L11.4971 11.5571L11.4994 11.5903C11.5046 11.6682 11.4769 11.7573 11.3876 11.8466L8.01284 15.2214C7.85452 15.3797 7.59255 15.3797 7.4343 15.2214C7.27598 15.0631 7.27599 14.8011 7.43429 14.6428L9.2504 12.8267L10.1039 11.9732L8.89685 11.9732L3.79689 11.9731C3.79687 11.9731 3.79685 11.9731 3.79683 11.9731C3.55874 11.9731 3.38095 11.7953 3.38086 11.5572L10.1 11.1373ZM10.1 11.1373L8.89815 11.141M10.1 11.1373L8.89815 11.141M8.89815 11.141L3.78263 11.1569H3.78107M8.89815 11.141L3.78107 11.1569M3.78107 11.1569C3.65218 11.1569 3.5554 11.2037 3.49156 11.2676M3.78107 11.1569L3.49156 11.2676M3.49156 11.2676C3.42773 11.3314 3.38091 11.4281 3.38086 11.5571L3.49156 11.2676ZM19.5 19.5V3.5H14.5V19.5H19.5Z" stroke="#FAFAFA"/>
</svg>
