<svg width="24" height="24" viewBox="0 0 24 24" fill="none" xmlns="http://www.w3.org/2000/svg">
<path d="M12 4C7.58855 4 4 7.58855 4 12C4 16.4114 7.58855 20 12 20C16.4114 20 20 16.4114 20 12C20 7.58855 16.4114 4 12 4ZM15.3673 15.5393C15.5672 14.6313 15.6886 13.6186 15.7186 12.5333H18.9112C18.8085 13.8747 18.3218 15.1087 17.5619 16.1286C16.8425 15.8826 16.1092 15.6866 15.3672 15.5392L15.3673 15.5393ZM6.43797 16.1287C5.67731 15.1087 5.19131 13.8747 5.08864 12.5334H8.28124C8.31191 13.6188 8.43325 14.6308 8.63258 15.5395C7.89057 15.6868 7.15731 15.8828 6.43723 16.1281L6.43797 16.1287ZM8.6326 8.46404C8.43327 9.37138 8.31194 10.3826 8.28127 11.4668H5.08867C5.19134 10.1255 5.67734 8.89142 6.438 7.87226C7.15867 8.11893 7.89066 8.31626 8.63263 8.46426L8.6326 8.46404ZM9.68461 8.64404C10.4486 8.74737 11.2219 8.80004 11.9998 8.80004C12.7778 8.80004 13.5505 8.74804 14.3151 8.64404C14.5024 9.47537 14.6231 10.4267 14.6551 11.4667H9.3445C9.3765 10.4274 9.49783 9.47604 9.68449 8.64404H9.68461ZM9.34461 12.5334H14.6552C14.6232 13.5747 14.5019 14.5275 14.3145 15.3599C12.7798 15.1533 11.2212 15.1533 9.68661 15.3599C9.49861 14.5272 9.37728 13.5746 9.34595 12.5334H9.34461ZM15.7187 11.4667C15.6881 10.3827 15.5667 9.37151 15.3674 8.46399C16.1094 8.31599 16.8421 8.11866 17.562 7.87132C18.3227 8.89132 18.8087 10.1253 18.9114 11.4666L15.7187 11.4667ZM16.7901 7.00208C16.2327 7.17476 15.6681 7.31675 15.098 7.42741C14.85 6.64075 14.5387 5.9621 14.1747 5.42066C15.1647 5.74865 16.0535 6.29666 16.79 7.00132L16.7901 7.00208ZM11.9994 5.06672C12.7261 5.06672 13.4995 6.01606 14.0254 7.60013C12.6807 7.76946 11.3181 7.76946 9.97349 7.60013C10.4995 6.01677 11.2728 5.06743 11.9994 5.06743V5.06672ZM8.90213 7.42733C8.33213 7.31666 7.76747 7.17466 7.21011 7.002C7.94678 6.29666 8.83543 5.74933 9.82473 5.42134C9.46072 5.96134 9.1494 6.64134 8.90139 7.42739L8.90213 7.42733ZM7.21011 16.9986C7.76678 16.8259 8.33145 16.6846 8.90142 16.5733C9.14876 17.3593 9.46008 18.0386 9.82342 18.5786C8.83475 18.2506 7.94679 17.7033 7.21023 16.9987L7.21011 16.9986ZM12 18.9332C11.2733 18.9332 10.5 17.9839 9.97406 16.4006C11.3194 16.2312 12.682 16.2312 14.026 16.4006C13.5 17.9839 12.7266 18.9332 12 18.9332ZM15.0986 16.5726C15.6686 16.6833 16.2333 16.8246 16.7906 16.998C16.054 17.7026 15.1653 18.25 14.1767 18.5779C14.5401 18.0379 14.8514 17.3586 15.0987 16.5726L15.0986 16.5726Z" fill="#FAFAFA"/>
</svg>
