<svg width="24" height="24" viewBox="0 0 24 24" fill="none" xmlns="http://www.w3.org/2000/svg">
<path d="M9.12622 11.3577H4.21533C2.99477 11.3577 2 10.3612 2 9.13854V4.21916C2 2.99649 2.99479 2 4.21533 2H9.12622C10.3468 2 11.3416 2.99651 11.3416 4.21916V9.13854C11.3416 10.3612 10.3468 11.3577 9.12622 11.3577ZM4.21435 3.76335C3.9645 3.76335 3.75937 3.96655 3.75937 4.21911V9.13849C3.75937 9.38877 3.96223 9.59425 4.21435 9.59425H9.12525C9.37509 9.59425 9.58022 9.39105 9.58022 9.13849V4.21911C9.58022 3.96883 9.37737 3.76335 9.12525 3.76335H4.21435ZM11.3418 19.7808V14.8615C11.3418 13.6388 10.347 12.6423 9.12649 12.6423H4.2156C2.99504 12.6423 2.00027 13.6388 2.00027 14.8615C2.00027 15.3494 2.39337 15.7432 2.88044 15.7432C3.36752 15.7432 3.76062 15.3494 3.76062 14.8615C3.76062 14.6112 3.96347 14.4057 4.2156 14.4057H9.12649C9.37634 14.4057 9.58147 14.6089 9.58147 14.8615V19.7808C9.58147 20.0311 9.37862 20.2366 9.12649 20.2366H4.2156C3.96575 20.2366 3.76062 20.0334 3.76062 19.7808C3.76062 19.2929 3.36752 18.8991 2.88044 18.8991C2.39337 18.8991 2.00027 19.2929 2.00027 19.7808C2.00027 21.0035 2.99506 22 4.2156 22H9.12649C10.3471 22 11.3418 21.0035 11.3418 19.7808ZM19.7847 11.3577H14.8738C13.6532 11.3577 12.6584 10.3612 12.6584 9.13854V4.21916C12.6584 2.99649 13.6532 2 14.8738 2H19.7847C21.0052 2 22 2.99651 22 4.21916V9.13854C22 10.3612 21.0052 11.3577 19.7847 11.3577ZM14.8738 3.76335C14.6239 3.76335 14.4188 3.96655 14.4188 4.21911V9.13849C14.4188 9.38877 14.6217 9.59425 14.8738 9.59425H19.7847C20.0345 9.59425 20.2396 9.39105 20.2396 9.13849V4.21911C20.2396 3.96883 20.0368 3.76335 19.7847 3.76335H14.8738ZM19.6849 16.4402H18.2088V14.9615C18.2088 14.4736 17.8157 14.0798 17.3286 14.0798C16.8415 14.0798 16.4484 14.4736 16.4484 14.9615V16.4402H14.9723C14.4852 16.4402 14.0921 16.834 14.0921 17.3219C14.0921 17.8098 14.4852 18.2036 14.9723 18.2036H16.4484V19.6823C16.4484 20.1702 16.8415 20.564 17.3286 20.564C17.8157 20.564 18.2088 20.1702 18.2088 19.6823V18.2036H19.6849C20.172 18.2036 20.5651 17.8098 20.5651 17.3219C20.5651 16.834 20.172 16.4402 19.6849 16.4402ZM2.8804 18.2036C3.36748 18.2036 3.76057 17.8098 3.76057 17.3219C3.76057 16.834 3.36748 16.4402 2.8804 16.4402C2.39332 16.4402 2.00022 16.834 2.00022 17.3219C2.00022 17.8098 2.39332 18.2036 2.8804 18.2036Z" fill="#FAFAFA"/>
</svg>
